<svg width="642" height="72" viewBox="0 0 642 72" fill="none" xmlns="http://www.w3.org/2000/svg">
<path d="M0.99 42.44C0.99 40.36 1.44 38.51 2.34 36.89C3.24 35.25 4.49 33.98 6.09 33.08C7.71 32.16 9.54 31.7 11.58 31.7C14.08 31.7 16.22 32.36 18 33.68C19.78 35 20.97 36.8 21.57 39.08H15.93C15.51 38.2 14.91 37.53 14.13 37.07C13.37 36.61 12.5 36.38 11.52 36.38C9.94 36.38 8.66 36.93 7.68 38.03C6.7 39.13 6.21 40.6 6.21 42.44C6.21 44.28 6.7 45.75 7.68 46.85C8.66 47.95 9.94 48.5 11.52 48.5C12.5 48.5 13.37 48.27 14.13 47.81C14.91 47.35 15.51 46.68 15.93 45.8H21.57C20.97 48.08 19.78 49.88 18 51.2C16.22 52.5 14.08 53.15 11.58 53.15C9.54 53.15 7.71 52.7 6.09 51.8C4.49 50.88 3.24 49.61 2.34 47.99C1.44 46.37 0.99 44.52 0.99 42.44ZM28.6416 39.05C29.2416 38.13 29.9916 37.41 30.8916 36.89C31.7916 36.35 32.7916 36.08 33.8916 36.08V41.51H32.4816C31.2016 41.51 30.2416 41.79 29.6016 42.35C28.9616 42.89 28.6416 43.85 28.6416 45.23V53H23.5116V36.26H28.6416V39.05ZM50.9236 44.36C50.9236 44.84 50.8936 45.34 50.8336 45.86H39.2236C39.3036 46.9 39.6336 47.7 40.2136 48.26C40.8136 48.8 41.5436 49.07 42.4036 49.07C43.6836 49.07 44.5736 48.53 45.0736 47.45H50.5336C50.2536 48.55 49.7436 49.54 49.0036 50.42C48.2836 51.3 47.3736 51.99 46.2736 52.49C45.1736 52.99 43.9436 53.24 42.5836 53.24C40.9436 53.24 39.4836 52.89 38.2036 52.19C36.9236 51.49 35.9236 50.49 35.2036 49.19C34.4836 47.89 34.1236 46.37 34.1236 44.63C34.1236 42.89 34.4736 41.37 35.1736 40.07C35.8936 38.77 36.8936 37.77 38.1736 37.07C39.4536 36.37 40.9236 36.02 42.5836 36.02C44.2036 36.02 45.6436 36.36 46.9036 37.04C48.1636 37.72 49.1436 38.69 49.8436 39.95C50.5636 41.21 50.9236 42.68 50.9236 44.36ZM45.6736 43.01C45.6736 42.13 45.3736 41.43 44.7736 40.91C44.1736 40.39 43.4236 40.13 42.5236 40.13C41.6636 40.13 40.9336 40.38 40.3336 40.88C39.7536 41.38 39.3936 42.09 39.2536 43.01H45.6736ZM51.4099 44.6C51.4099 42.88 51.7299 41.37 52.3699 40.07C53.0299 38.77 53.9199 37.77 55.0399 37.07C56.1599 36.37 57.4099 36.02 58.7899 36.02C59.9699 36.02 60.9999 36.26 61.8799 36.74C62.7799 37.22 63.4699 37.85 63.9499 38.63V36.26H69.0799V53H63.9499V50.63C63.4499 51.41 62.7499 52.04 61.8499 52.52C60.9699 53 59.9399 53.24 58.7599 53.24C57.3999 53.24 56.1599 52.89 55.0399 52.19C53.9199 51.47 53.0299 50.46 52.3699 49.16C51.7299 47.84 51.4099 46.32 51.4099 44.6ZM63.9499 44.63C63.9499 43.35 63.5899 42.34 62.8699 41.6C62.1699 40.86 61.3099 40.49 60.2899 40.49C59.2699 40.49 58.3999 40.86 57.6799 41.6C56.9799 42.32 56.6299 43.32 56.6299 44.6C56.6299 45.88 56.9799 46.9 57.6799 47.66C58.3999 48.4 59.2699 48.77 60.2899 48.77C61.3099 48.77 62.1699 48.4 62.8699 47.66C63.5899 46.92 63.9499 45.91 63.9499 44.63ZM80.9212 48.65V53H78.3112C76.4512 53 75.0012 52.55 73.9612 51.65C72.9212 50.73 72.4012 49.24 72.4012 47.18V40.52H70.3612V36.26H72.4012V32.18H77.5312V36.26H80.8912V40.52H77.5312V47.24C77.5312 47.74 77.6512 48.1 77.8912 48.32C78.1312 48.54 78.5312 48.65 79.0912 48.65H80.9212ZM98.3587 44.36C98.3587 44.84 98.3288 45.34 98.2688 45.86H86.6588C86.7388 46.9 87.0688 47.7 87.6488 48.26C88.2488 48.8 88.9788 49.07 89.8388 49.07C91.1188 49.07 92.0088 48.53 92.5088 47.45H97.9688C97.6888 48.55 97.1788 49.54 96.4388 50.42C95.7188 51.3 94.8088 51.99 93.7088 52.49C92.6088 52.99 91.3788 53.24 90.0188 53.24C88.3788 53.24 86.9188 52.89 85.6388 52.19C84.3588 51.49 83.3588 50.49 82.6388 49.19C81.9188 47.89 81.5588 46.37 81.5588 44.63C81.5588 42.89 81.9088 41.37 82.6088 40.07C83.3288 38.77 84.3288 37.77 85.6088 37.07C86.8888 36.37 88.3588 36.02 90.0188 36.02C91.6388 36.02 93.0788 36.36 94.3388 37.04C95.5988 37.72 96.5788 38.69 97.2788 39.95C97.9988 41.21 98.3587 42.68 98.3587 44.36ZM93.1088 43.01C93.1088 42.13 92.8088 41.43 92.2088 40.91C91.6088 40.39 90.8588 40.13 89.9588 40.13C89.0988 40.13 88.3688 40.38 87.7688 40.88C87.1888 41.38 86.8288 42.09 86.6888 43.01H93.1088ZM98.8451 44.6C98.8451 42.88 99.1651 41.37 99.8051 40.07C100.465 38.77 101.355 37.77 102.475 37.07C103.595 36.37 104.845 36.02 106.225 36.02C107.325 36.02 108.325 36.25 109.225 36.71C110.145 37.17 110.865 37.79 111.385 38.57V30.8H116.515V53H111.385V50.6C110.905 51.4 110.215 52.04 109.315 52.52C108.435 53 107.405 53.24 106.225 53.24C104.845 53.24 103.595 52.89 102.475 52.19C101.355 51.47 100.465 50.46 99.8051 49.16C99.1651 47.84 98.8451 46.32 98.8451 44.6ZM111.385 44.63C111.385 43.35 111.025 42.34 110.305 41.6C109.605 40.86 108.745 40.49 107.725 40.49C106.705 40.49 105.835 40.86 105.115 41.6C104.415 42.32 104.065 43.32 104.065 44.6C104.065 45.88 104.415 46.9 105.115 47.66C105.835 48.4 106.705 48.77 107.725 48.77C108.745 48.77 109.605 48.4 110.305 47.66C111.025 46.92 111.385 45.91 111.385 44.63ZM148.214 36.26L143.684 53H138.014L135.374 42.14L132.644 53H127.004L122.444 36.26H127.574L129.944 48.23L132.764 36.26H138.194L141.044 48.17L143.384 36.26H148.214ZM151.55 34.52C150.65 34.52 149.91 34.26 149.33 33.74C148.77 33.2 148.49 32.54 148.49 31.76C148.49 30.96 148.77 30.3 149.33 29.78C149.91 29.24 150.65 28.97 151.55 28.97C152.43 28.97 153.15 29.24 153.71 29.78C154.29 30.3 154.58 30.96 154.58 31.76C154.58 32.54 154.29 33.2 153.71 33.74C153.15 34.26 152.43 34.52 151.55 34.52ZM154.1 36.26V53H148.97V36.26H154.1ZM165.948 48.65V53H163.338C161.478 53 160.028 52.55 158.988 51.65C157.948 50.73 157.428 49.24 157.428 47.18V40.52H155.388V36.26H157.428V32.18H162.558V36.26H165.918V40.52H162.558V47.24C162.558 47.74 162.678 48.1 162.918 48.32C163.158 48.54 163.558 48.65 164.118 48.65H165.948ZM177.895 36.08C179.815 36.08 181.355 36.72 182.515 38C183.675 39.26 184.255 41 184.255 43.22V53H179.155V43.91C179.155 42.79 178.865 41.92 178.285 41.3C177.705 40.68 176.925 40.37 175.945 40.37C174.965 40.37 174.185 40.68 173.605 41.3C173.025 41.92 172.735 42.79 172.735 43.91V53H167.605V30.8H172.735V38.51C173.255 37.77 173.965 37.18 174.865 36.74C175.765 36.3 176.775 36.08 177.895 36.08Z" fill="white"/>
<path d="M234.222 45.4444H207.778C205.691 45.4444 204 47.1358 204 49.2222C204 51.3086 205.691 53 207.778 53H234.222C236.309 53 238 51.3086 238 49.2222C238 47.1358 236.309 45.4444 234.222 45.4444Z" fill="white"/>
<path d="M260.168 53.336C257.704 53.336 255.496 52.936 253.544 52.136C251.592 51.336 250.024 50.152 248.84 48.584C247.688 47.016 247.08 45.128 247.016 42.92H255.752C255.88 44.168 256.312 45.128 257.048 45.8C257.784 46.44 258.744 46.76 259.928 46.76C261.144 46.76 262.104 46.488 262.808 45.944C263.512 45.368 263.864 44.584 263.864 43.592C263.864 42.76 263.576 42.072 263 41.528C262.456 40.984 261.768 40.536 260.936 40.184C260.136 39.832 258.984 39.432 257.48 38.984C255.304 38.312 253.528 37.64 252.152 36.968C250.776 36.296 249.592 35.304 248.6 33.992C247.608 32.68 247.112 30.968 247.112 28.856C247.112 25.72 248.248 23.272 250.52 21.512C252.792 19.72 255.752 18.824 259.4 18.824C263.112 18.824 266.104 19.72 268.376 21.512C270.648 23.272 271.864 25.736 272.024 28.904H263.144C263.08 27.816 262.68 26.968 261.944 26.36C261.208 25.72 260.264 25.4 259.112 25.4C258.12 25.4 257.32 25.672 256.712 26.216C256.104 26.728 255.8 27.48 255.8 28.472C255.8 29.56 256.312 30.408 257.336 31.016C258.36 31.624 259.96 32.28 262.136 32.984C264.312 33.72 266.072 34.424 267.416 35.096C268.792 35.768 269.976 36.744 270.968 38.024C271.96 39.304 272.456 40.952 272.456 42.968C272.456 44.888 271.96 46.632 270.968 48.2C270.008 49.768 268.6 51.016 266.744 51.944C264.888 52.872 262.696 53.336 260.168 53.336ZM300.835 39.176C300.835 39.944 300.787 40.744 300.691 41.576H282.115C282.243 43.24 282.771 44.52 283.699 45.416C284.659 46.28 285.827 46.712 287.203 46.712C289.251 46.712 290.675 45.848 291.475 44.12H300.211C299.763 45.88 298.947 47.464 297.763 48.872C296.611 50.28 295.155 51.384 293.395 52.184C291.635 52.984 289.667 53.384 287.491 53.384C284.867 53.384 282.531 52.824 280.483 51.704C278.435 50.584 276.835 48.984 275.683 46.904C274.531 44.824 273.955 42.392 273.955 39.608C273.955 36.824 274.515 34.392 275.635 32.312C276.787 30.232 278.387 28.632 280.435 27.512C282.483 26.392 284.835 25.832 287.491 25.832C290.083 25.832 292.387 26.376 294.403 27.464C296.419 28.552 297.987 30.104 299.107 32.12C300.259 34.136 300.835 36.488 300.835 39.176ZM292.435 37.016C292.435 35.608 291.955 34.488 290.995 33.656C290.035 32.824 288.835 32.408 287.395 32.408C286.019 32.408 284.851 32.808 283.891 33.608C282.963 34.408 282.387 35.544 282.163 37.016H292.435ZM328.493 39.176C328.493 39.944 328.445 40.744 328.349 41.576H309.773C309.901 43.24 310.429 44.52 311.357 45.416C312.317 46.28 313.485 46.712 314.861 46.712C316.909 46.712 318.333 45.848 319.133 44.12H327.869C327.421 45.88 326.605 47.464 325.421 48.872C324.269 50.28 322.813 51.384 321.053 52.184C319.293 52.984 317.325 53.384 315.149 53.384C312.525 53.384 310.189 52.824 308.141 51.704C306.093 50.584 304.493 48.984 303.341 46.904C302.189 44.824 301.613 42.392 301.613 39.608C301.613 36.824 302.173 34.392 303.293 32.312C304.445 30.232 306.045 28.632 308.093 27.512C310.141 26.392 312.493 25.832 315.149 25.832C317.741 25.832 320.045 26.376 322.061 27.464C324.077 28.552 325.645 30.104 326.765 32.12C327.917 34.136 328.493 36.488 328.493 39.176ZM320.093 37.016C320.093 35.608 319.613 34.488 318.653 33.656C317.693 32.824 316.493 32.408 315.053 32.408C313.677 32.408 312.509 32.808 311.549 33.608C310.621 34.408 310.045 35.544 309.821 37.016H320.093ZM369.064 19.304V53H360.856V32.792L353.319 53H346.695L339.111 32.744V53H330.903V19.304H340.599L350.055 42.632L359.415 19.304H369.064ZM400.406 26.216L383.606 65.72H374.774L380.918 52.088L370.022 26.216H379.19L385.382 42.968L391.526 26.216H400.406ZM418.638 53L411.63 40.28H409.662V53H401.454V19.304H415.23C417.886 19.304 420.142 19.768 421.998 20.696C423.886 21.624 425.294 22.904 426.222 24.536C427.15 26.136 427.614 27.928 427.614 29.912C427.614 32.152 426.974 34.152 425.694 35.912C424.446 37.672 422.59 38.92 420.126 39.656L427.902 53H418.638ZM409.662 34.472H414.75C416.254 34.472 417.374 34.104 418.11 33.368C418.878 32.632 419.262 31.592 419.262 30.248C419.262 28.968 418.878 27.96 418.11 27.224C417.374 26.488 416.254 26.12 414.75 26.12H409.662V34.472ZM456.095 39.176C456.095 39.944 456.047 40.744 455.951 41.576H437.375C437.503 43.24 438.031 44.52 438.959 45.416C439.919 46.28 441.087 46.712 442.463 46.712C444.511 46.712 445.935 45.848 446.735 44.12H455.471C455.023 45.88 454.207 47.464 453.023 48.872C451.871 50.28 450.415 51.384 448.655 52.184C446.895 52.984 444.927 53.384 442.751 53.384C440.127 53.384 437.791 52.824 435.743 51.704C433.695 50.584 432.095 48.984 430.943 46.904C429.791 44.824 429.215 42.392 429.215 39.608C429.215 36.824 429.775 34.392 430.895 32.312C432.047 30.232 433.647 28.632 435.695 27.512C437.743 26.392 440.095 25.832 442.751 25.832C445.343 25.832 447.647 26.376 449.663 27.464C451.679 28.552 453.247 30.104 454.367 32.12C455.519 34.136 456.095 36.488 456.095 39.176ZM447.695 37.016C447.695 35.608 447.215 34.488 446.255 33.656C445.295 32.824 444.095 32.408 442.655 32.408C441.279 32.408 440.111 32.808 439.151 33.608C438.223 34.408 437.647 35.544 437.423 37.016H447.695ZM469.401 53.384C467.065 53.384 464.985 52.984 463.161 52.184C461.337 51.384 459.897 50.296 458.841 48.92C457.785 47.512 457.193 45.944 457.065 44.216H465.177C465.273 45.144 465.705 45.896 466.473 46.472C467.241 47.048 468.185 47.336 469.305 47.336C470.329 47.336 471.113 47.144 471.657 46.76C472.233 46.344 472.521 45.816 472.521 45.176C472.521 44.408 472.121 43.848 471.321 43.496C470.521 43.112 469.225 42.696 467.433 42.248C465.513 41.8 463.913 41.336 462.633 40.856C461.353 40.344 460.249 39.56 459.321 38.504C458.393 37.416 457.929 35.96 457.929 34.136C457.929 32.6 458.345 31.208 459.177 29.96C460.041 28.68 461.289 27.672 462.921 26.936C464.585 26.2 466.553 25.832 468.825 25.832C472.185 25.832 474.825 26.664 476.745 28.328C478.697 29.992 479.817 32.2 480.105 34.952H472.521C472.393 34.024 471.977 33.288 471.273 32.744C470.601 32.2 469.705 31.928 468.585 31.928C467.625 31.928 466.889 32.12 466.377 32.504C465.865 32.856 465.609 33.352 465.609 33.992C465.609 34.76 466.009 35.336 466.809 35.72C467.641 36.104 468.921 36.488 470.649 36.872C472.633 37.384 474.249 37.896 475.497 38.408C476.745 38.888 477.833 39.688 478.761 40.808C479.721 41.896 480.217 43.368 480.249 45.224C480.249 46.792 479.801 48.2 478.905 49.448C478.041 50.664 476.777 51.624 475.113 52.328C473.481 53.032 471.577 53.384 469.401 53.384ZM509.798 26.216V53H501.59V49.352C500.758 50.536 499.622 51.496 498.182 52.232C496.774 52.936 495.206 53.288 493.478 53.288C491.43 53.288 489.622 52.84 488.054 51.944C486.486 51.016 485.27 49.688 484.406 47.96C483.542 46.232 483.11 44.2 483.11 41.864V26.216H491.27V40.76C491.27 42.552 491.734 43.944 492.662 44.936C493.59 45.928 494.838 46.424 496.406 46.424C498.006 46.424 499.27 45.928 500.198 44.936C501.126 43.944 501.59 42.552 501.59 40.76V26.216H509.798ZM547.95 25.928C551.278 25.928 553.918 26.936 555.87 28.952C557.854 30.968 558.846 33.768 558.846 37.352V53H550.686V38.456C550.686 36.728 550.222 35.4 549.294 34.472C548.398 33.512 547.15 33.032 545.55 33.032C543.95 33.032 542.686 33.512 541.758 34.472C540.862 35.4 540.414 36.728 540.414 38.456V53H532.254V38.456C532.254 36.728 531.79 35.4 530.862 34.472C529.966 33.512 528.718 33.032 527.118 33.032C525.518 33.032 524.254 33.512 523.326 34.472C522.43 35.4 521.982 36.728 521.982 38.456V53H513.774V26.216H521.982V29.576C522.814 28.456 523.902 27.576 525.246 26.936C526.59 26.264 528.11 25.928 529.806 25.928C531.822 25.928 533.614 26.36 535.182 27.224C536.782 28.088 538.03 29.32 538.926 30.92C539.854 29.448 541.118 28.248 542.718 27.32C544.318 26.392 546.062 25.928 547.95 25.928ZM587.915 39.176C587.915 39.944 587.867 40.744 587.771 41.576H569.195C569.323 43.24 569.851 44.52 570.779 45.416C571.739 46.28 572.907 46.712 574.283 46.712C576.331 46.712 577.755 45.848 578.555 44.12H587.291C586.843 45.88 586.027 47.464 584.843 48.872C583.691 50.28 582.235 51.384 580.475 52.184C578.715 52.984 576.747 53.384 574.571 53.384C571.947 53.384 569.611 52.824 567.563 51.704C565.515 50.584 563.915 48.984 562.763 46.904C561.611 44.824 561.035 42.392 561.035 39.608C561.035 36.824 561.595 34.392 562.715 32.312C563.867 30.232 565.467 28.632 567.515 27.512C569.563 26.392 571.915 25.832 574.571 25.832C577.163 25.832 579.467 26.376 581.483 27.464C583.499 28.552 585.067 30.104 586.187 32.12C587.339 34.136 587.915 36.488 587.915 39.176ZM579.515 37.016C579.515 35.608 579.035 34.488 578.075 33.656C577.115 32.824 575.915 32.408 574.475 32.408C573.099 32.408 571.931 32.808 570.971 33.608C570.043 34.408 569.467 35.544 569.243 37.016H579.515ZM594.165 53.384C592.725 53.384 591.541 52.968 590.613 52.136C589.717 51.272 589.269 50.216 589.269 48.968C589.269 47.688 589.717 46.616 590.613 45.752C591.541 44.888 592.725 44.456 594.165 44.456C595.573 44.456 596.725 44.888 597.621 45.752C598.549 46.616 599.013 47.688 599.013 48.968C599.013 50.216 598.549 51.272 597.621 52.136C596.725 52.968 595.573 53.384 594.165 53.384ZM606.08 23.432C604.64 23.432 603.456 23.016 602.528 22.184C601.632 21.32 601.184 20.264 601.184 19.016C601.184 17.736 601.632 16.68 602.528 15.848C603.456 14.984 604.64 14.552 606.08 14.552C607.488 14.552 608.64 14.984 609.536 15.848C610.464 16.68 610.928 17.736 610.928 19.016C610.928 20.264 610.464 21.32 609.536 22.184C608.64 23.016 607.488 23.432 606.08 23.432ZM610.16 26.216V53H601.952V26.216H610.16ZM626.38 53.384C623.756 53.384 621.388 52.824 619.276 51.704C617.196 50.584 615.548 48.984 614.332 46.904C613.148 44.824 612.556 42.392 612.556 39.608C612.556 36.856 613.164 34.44 614.38 32.36C615.596 30.248 617.26 28.632 619.372 27.512C621.484 26.392 623.852 25.832 626.476 25.832C629.1 25.832 631.468 26.392 633.58 27.512C635.692 28.632 637.356 30.248 638.572 32.36C639.788 34.44 640.396 36.856 640.396 39.608C640.396 42.36 639.772 44.792 638.524 46.904C637.308 48.984 635.628 50.584 633.484 51.704C631.372 52.824 629.004 53.384 626.38 53.384ZM626.38 46.28C627.948 46.28 629.276 45.704 630.364 44.552C631.484 43.4 632.044 41.752 632.044 39.608C632.044 37.464 631.5 35.816 630.412 34.664C629.356 33.512 628.044 32.936 626.476 32.936C624.876 32.936 623.548 33.512 622.492 34.664C621.436 35.784 620.908 37.432 620.908 39.608C620.908 41.752 621.42 43.4 622.444 44.552C623.5 45.704 624.812 46.28 626.38 46.28Z" fill="white"/>
<path d="M234.222 32.2222H216.725C214.639 32.2222 212.947 33.9136 212.947 36C212.947 38.0864 214.639 39.7778 216.725 39.7778H234.222C236.309 39.7778 238 38.0864 238 36C238 33.9136 236.309 32.2222 234.222 32.2222Z" fill="white"/>
<path d="M234.222 19H229.251C227.165 19 225.474 20.6914 225.474 22.7778C225.474 24.8642 227.165 26.5556 229.251 26.5556H234.222C236.309 26.5556 238 24.8642 238 22.7778C238 20.6914 236.309 19 234.222 19Z" fill="white"/>
</svg>
