<svg width="438" height="106" viewBox="0 0 438 106" fill="none" xmlns="http://www.w3.org/2000/svg">
<path d="M30.2222 79.4445H3.77778C1.69137 79.4445 0 81.1358 0 83.2222C0 85.3086 1.69137 87 3.77778 87H30.2222C32.3086 87 34 85.3086 34 83.2222C34 81.1358 32.3086 79.4445 30.2222 79.4445Z" fill="#ABAAAA"/>
<path d="M56.168 87.336C53.704 87.336 51.496 86.936 49.544 86.136C47.592 85.336 46.024 84.152 44.84 82.584C43.688 81.016 43.08 79.128 43.016 76.92H51.752C51.88 78.168 52.312 79.128 53.048 79.8C53.784 80.44 54.744 80.76 55.928 80.76C57.144 80.76 58.104 80.488 58.808 79.944C59.512 79.368 59.864 78.584 59.864 77.592C59.864 76.76 59.576 76.072 59 75.528C58.456 74.984 57.768 74.536 56.936 74.184C56.136 73.832 54.984 73.432 53.48 72.984C51.304 72.312 49.528 71.64 48.152 70.968C46.776 70.296 45.592 69.304 44.6 67.992C43.608 66.68 43.112 64.968 43.112 62.856C43.112 59.72 44.248 57.272 46.52 55.512C48.792 53.72 51.752 52.824 55.4 52.824C59.112 52.824 62.104 53.72 64.376 55.512C66.648 57.272 67.864 59.736 68.024 62.904H59.144C59.08 61.816 58.68 60.968 57.944 60.36C57.208 59.72 56.264 59.4 55.112 59.4C54.12 59.4 53.32 59.672 52.712 60.216C52.104 60.728 51.8 61.48 51.8 62.472C51.8 63.56 52.312 64.408 53.336 65.016C54.36 65.624 55.96 66.28 58.136 66.984C60.312 67.72 62.072 68.424 63.416 69.096C64.792 69.768 65.976 70.744 66.968 72.024C67.96 73.304 68.456 74.952 68.456 76.968C68.456 78.888 67.96 80.632 66.968 82.2C66.008 83.768 64.6 85.016 62.744 85.944C60.888 86.872 58.696 87.336 56.168 87.336ZM96.8352 73.176C96.8352 73.944 96.7873 74.744 96.6913 75.576H78.1153C78.2433 77.24 78.7713 78.52 79.6993 79.416C80.6593 80.28 81.8273 80.712 83.2033 80.712C85.2513 80.712 86.6753 79.848 87.4753 78.12H96.2113C95.7633 79.88 94.9473 81.464 93.7633 82.872C92.6113 84.28 91.1553 85.384 89.3953 86.184C87.6353 86.984 85.6673 87.384 83.4913 87.384C80.8673 87.384 78.5313 86.824 76.4833 85.704C74.4353 84.584 72.8353 82.984 71.6833 80.904C70.5312 78.824 69.9552 76.392 69.9552 73.608C69.9552 70.824 70.5152 68.392 71.6352 66.312C72.7873 64.232 74.3873 62.632 76.4353 61.512C78.4833 60.392 80.8353 59.832 83.4913 59.832C86.0833 59.832 88.3873 60.376 90.4033 61.464C92.4193 62.552 93.9873 64.104 95.1073 66.12C96.2593 68.136 96.8352 70.488 96.8352 73.176ZM88.4353 71.016C88.4353 69.608 87.9553 68.488 86.9953 67.656C86.0353 66.824 84.8353 66.408 83.3953 66.408C82.0193 66.408 80.8513 66.808 79.8913 67.608C78.9633 68.408 78.3873 69.544 78.1633 71.016H88.4353ZM124.493 73.176C124.493 73.944 124.445 74.744 124.349 75.576H105.773C105.901 77.24 106.429 78.52 107.357 79.416C108.317 80.28 109.485 80.712 110.861 80.712C112.909 80.712 114.333 79.848 115.133 78.12H123.869C123.421 79.88 122.605 81.464 121.421 82.872C120.269 84.28 118.813 85.384 117.053 86.184C115.293 86.984 113.325 87.384 111.149 87.384C108.525 87.384 106.189 86.824 104.141 85.704C102.093 84.584 100.493 82.984 99.3414 80.904C98.1894 78.824 97.6134 76.392 97.6134 73.608C97.6134 70.824 98.1734 68.392 99.2934 66.312C100.445 64.232 102.045 62.632 104.093 61.512C106.141 60.392 108.493 59.832 111.149 59.832C113.741 59.832 116.045 60.376 118.061 61.464C120.077 62.552 121.645 64.104 122.765 66.12C123.917 68.136 124.493 70.488 124.493 73.176ZM116.093 71.016C116.093 69.608 115.613 68.488 114.653 67.656C113.693 66.824 112.493 66.408 111.053 66.408C109.677 66.408 108.509 66.808 107.549 67.608C106.621 68.408 106.045 69.544 105.821 71.016H116.093ZM165.064 53.304V87H156.856V66.792L149.319 87H142.695L135.111 66.744V87H126.903V53.304H136.599L146.055 76.632L155.415 53.304H165.064ZM196.406 60.216L179.606 99.72H170.774L176.918 86.088L166.022 60.216H175.19L181.382 76.968L187.526 60.216H196.406ZM214.638 87L207.63 74.28H205.662V87H197.454V53.304H211.23C213.886 53.304 216.142 53.768 217.998 54.696C219.886 55.624 221.294 56.904 222.222 58.536C223.15 60.136 223.614 61.928 223.614 63.912C223.614 66.152 222.974 68.152 221.694 69.912C220.446 71.672 218.59 72.92 216.126 73.656L223.902 87H214.638ZM205.662 68.472H210.75C212.254 68.472 213.374 68.104 214.11 67.368C214.878 66.632 215.262 65.592 215.262 64.248C215.262 62.968 214.878 61.96 214.11 61.224C213.374 60.488 212.254 60.12 210.75 60.12H205.662V68.472ZM252.095 73.176C252.095 73.944 252.047 74.744 251.951 75.576H233.375C233.503 77.24 234.031 78.52 234.959 79.416C235.919 80.28 237.087 80.712 238.463 80.712C240.511 80.712 241.935 79.848 242.735 78.12H251.471C251.023 79.88 250.207 81.464 249.023 82.872C247.871 84.28 246.415 85.384 244.655 86.184C242.895 86.984 240.927 87.384 238.751 87.384C236.127 87.384 233.791 86.824 231.743 85.704C229.695 84.584 228.095 82.984 226.943 80.904C225.791 78.824 225.215 76.392 225.215 73.608C225.215 70.824 225.775 68.392 226.895 66.312C228.047 64.232 229.647 62.632 231.695 61.512C233.743 60.392 236.095 59.832 238.751 59.832C241.343 59.832 243.647 60.376 245.663 61.464C247.679 62.552 249.247 64.104 250.367 66.12C251.519 68.136 252.095 70.488 252.095 73.176ZM243.695 71.016C243.695 69.608 243.215 68.488 242.255 67.656C241.295 66.824 240.095 66.408 238.655 66.408C237.279 66.408 236.111 66.808 235.151 67.608C234.223 68.408 233.647 69.544 233.423 71.016H243.695ZM265.401 87.384C263.065 87.384 260.985 86.984 259.161 86.184C257.337 85.384 255.897 84.296 254.841 82.92C253.785 81.512 253.193 79.944 253.065 78.216H261.177C261.273 79.144 261.705 79.896 262.473 80.472C263.241 81.048 264.185 81.336 265.305 81.336C266.329 81.336 267.113 81.144 267.657 80.76C268.233 80.344 268.521 79.816 268.521 79.176C268.521 78.408 268.121 77.848 267.321 77.496C266.521 77.112 265.225 76.696 263.433 76.248C261.513 75.8 259.913 75.336 258.633 74.856C257.353 74.344 256.249 73.56 255.321 72.504C254.393 71.416 253.929 69.96 253.929 68.136C253.929 66.6 254.345 65.208 255.177 63.96C256.041 62.68 257.289 61.672 258.921 60.936C260.585 60.2 262.553 59.832 264.825 59.832C268.185 59.832 270.825 60.664 272.745 62.328C274.697 63.992 275.817 66.2 276.105 68.952H268.521C268.393 68.024 267.977 67.288 267.273 66.744C266.601 66.2 265.705 65.928 264.585 65.928C263.625 65.928 262.889 66.12 262.377 66.504C261.865 66.856 261.609 67.352 261.609 67.992C261.609 68.76 262.009 69.336 262.809 69.72C263.641 70.104 264.921 70.488 266.649 70.872C268.633 71.384 270.249 71.896 271.497 72.408C272.745 72.888 273.833 73.688 274.761 74.808C275.721 75.896 276.217 77.368 276.249 79.224C276.249 80.792 275.801 82.2 274.905 83.448C274.041 84.664 272.777 85.624 271.113 86.328C269.481 87.032 267.577 87.384 265.401 87.384ZM305.798 60.216V87H297.59V83.352C296.758 84.536 295.622 85.496 294.182 86.232C292.774 86.936 291.206 87.288 289.478 87.288C287.43 87.288 285.622 86.84 284.054 85.944C282.486 85.016 281.27 83.688 280.406 81.96C279.542 80.232 279.11 78.2 279.11 75.864V60.216H287.27V74.76C287.27 76.552 287.734 77.944 288.662 78.936C289.59 79.928 290.838 80.424 292.406 80.424C294.006 80.424 295.27 79.928 296.198 78.936C297.126 77.944 297.59 76.552 297.59 74.76V60.216H305.798ZM343.95 59.928C347.278 59.928 349.918 60.936 351.87 62.952C353.854 64.968 354.846 67.768 354.846 71.352V87H346.686V72.456C346.686 70.728 346.222 69.4 345.294 68.472C344.398 67.512 343.15 67.032 341.55 67.032C339.95 67.032 338.686 67.512 337.758 68.472C336.862 69.4 336.414 70.728 336.414 72.456V87H328.254V72.456C328.254 70.728 327.79 69.4 326.862 68.472C325.966 67.512 324.718 67.032 323.118 67.032C321.518 67.032 320.254 67.512 319.326 68.472C318.43 69.4 317.982 70.728 317.982 72.456V87H309.774V60.216H317.982V63.576C318.814 62.456 319.902 61.576 321.246 60.936C322.59 60.264 324.11 59.928 325.806 59.928C327.822 59.928 329.614 60.36 331.182 61.224C332.782 62.088 334.03 63.32 334.926 64.92C335.854 63.448 337.118 62.248 338.718 61.32C340.318 60.392 342.062 59.928 343.95 59.928ZM383.915 73.176C383.915 73.944 383.867 74.744 383.771 75.576H365.195C365.323 77.24 365.851 78.52 366.779 79.416C367.739 80.28 368.907 80.712 370.283 80.712C372.331 80.712 373.755 79.848 374.555 78.12H383.291C382.843 79.88 382.027 81.464 380.843 82.872C379.691 84.28 378.235 85.384 376.475 86.184C374.715 86.984 372.747 87.384 370.571 87.384C367.947 87.384 365.611 86.824 363.563 85.704C361.515 84.584 359.915 82.984 358.763 80.904C357.611 78.824 357.035 76.392 357.035 73.608C357.035 70.824 357.595 68.392 358.715 66.312C359.867 64.232 361.467 62.632 363.515 61.512C365.563 60.392 367.915 59.832 370.571 59.832C373.163 59.832 375.467 60.376 377.483 61.464C379.499 62.552 381.067 64.104 382.187 66.12C383.339 68.136 383.915 70.488 383.915 73.176ZM375.515 71.016C375.515 69.608 375.035 68.488 374.075 67.656C373.115 66.824 371.915 66.408 370.475 66.408C369.099 66.408 367.931 66.808 366.971 67.608C366.043 68.408 365.467 69.544 365.243 71.016H375.515ZM390.165 87.384C388.725 87.384 387.541 86.968 386.613 86.136C385.717 85.272 385.269 84.216 385.269 82.968C385.269 81.688 385.717 80.616 386.613 79.752C387.541 78.888 388.725 78.456 390.165 78.456C391.573 78.456 392.725 78.888 393.621 79.752C394.549 80.616 395.013 81.688 395.013 82.968C395.013 84.216 394.549 85.272 393.621 86.136C392.725 86.968 391.573 87.384 390.165 87.384ZM402.08 57.432C400.64 57.432 399.456 57.016 398.528 56.184C397.632 55.32 397.184 54.264 397.184 53.016C397.184 51.736 397.632 50.68 398.528 49.848C399.456 48.984 400.64 48.552 402.08 48.552C403.488 48.552 404.64 48.984 405.536 49.848C406.464 50.68 406.928 51.736 406.928 53.016C406.928 54.264 406.464 55.32 405.536 56.184C404.64 57.016 403.488 57.432 402.08 57.432ZM406.16 60.216V87H397.952V60.216H406.16ZM422.38 87.384C419.756 87.384 417.388 86.824 415.276 85.704C413.196 84.584 411.548 82.984 410.332 80.904C409.148 78.824 408.556 76.392 408.556 73.608C408.556 70.856 409.164 68.44 410.38 66.36C411.596 64.248 413.26 62.632 415.372 61.512C417.484 60.392 419.852 59.832 422.476 59.832C425.1 59.832 427.468 60.392 429.58 61.512C431.692 62.632 433.356 64.248 434.572 66.36C435.788 68.44 436.396 70.856 436.396 73.608C436.396 76.36 435.772 78.792 434.524 80.904C433.308 82.984 431.628 84.584 429.484 85.704C427.372 86.824 425.004 87.384 422.38 87.384ZM422.38 80.28C423.948 80.28 425.276 79.704 426.364 78.552C427.484 77.4 428.044 75.752 428.044 73.608C428.044 71.464 427.5 69.816 426.412 68.664C425.356 67.512 424.044 66.936 422.476 66.936C420.876 66.936 419.548 67.512 418.492 68.664C417.436 69.784 416.908 71.432 416.908 73.608C416.908 75.752 417.42 77.4 418.444 78.552C419.5 79.704 420.812 80.28 422.38 80.28Z" fill="#ABAAAA"/>
<path d="M30.2223 66.2222H12.7252C10.6388 66.2222 8.94742 67.9136 8.94742 70C8.94742 72.0864 10.6388 73.7778 12.7252 73.7778H30.2223C32.3087 73.7778 34 72.0864 34 70C34 67.9136 32.3087 66.2222 30.2223 66.2222Z" fill="#ABAAAA"/>
<path d="M30.2222 53H25.2514C23.165 53 21.4736 54.6914 21.4736 56.7778C21.4736 58.8642 23.165 60.5556 25.2514 60.5556H30.2222C32.3086 60.5556 33.9999 58.8642 33.9999 56.7778C33.9999 54.6914 32.3086 53 30.2222 53Z" fill="#ABAAAA"/>
<path d="M41.99 22.44C41.99 20.36 42.44 18.51 43.34 16.89C44.24 15.25 45.49 13.98 47.09 13.08C48.71 12.16 50.54 11.7 52.58 11.7C55.08 11.7 57.22 12.36 59 13.68C60.78 15 61.97 16.8 62.57 19.08H56.93C56.51 18.2 55.91 17.53 55.13 17.07C54.37 16.61 53.5 16.38 52.52 16.38C50.94 16.38 49.66 16.93 48.68 18.03C47.7 19.13 47.21 20.6 47.21 22.44C47.21 24.28 47.7 25.75 48.68 26.85C49.66 27.95 50.94 28.5 52.52 28.5C53.5 28.5 54.37 28.27 55.13 27.81C55.91 27.35 56.51 26.68 56.93 25.8H62.57C61.97 28.08 60.78 29.88 59 31.2C57.22 32.5 55.08 33.15 52.58 33.15C50.54 33.15 48.71 32.7 47.09 31.8C45.49 30.88 44.24 29.61 43.34 27.99C42.44 26.37 41.99 24.52 41.99 22.44ZM69.6416 19.05C70.2416 18.13 70.9916 17.41 71.8916 16.89C72.7916 16.35 73.7916 16.08 74.8916 16.08V21.51H73.4816C72.2016 21.51 71.2416 21.79 70.6016 22.35C69.9616 22.89 69.6416 23.85 69.6416 25.23V33H64.5116V16.26H69.6416V19.05ZM91.9236 24.36C91.9236 24.84 91.8936 25.34 91.8336 25.86H80.2236C80.3036 26.9 80.6336 27.7 81.2136 28.26C81.8136 28.8 82.5436 29.07 83.4036 29.07C84.6836 29.07 85.5736 28.53 86.0736 27.45H91.5336C91.2536 28.55 90.7436 29.54 90.0036 30.42C89.2836 31.3 88.3736 31.99 87.2736 32.49C86.1736 32.99 84.9436 33.24 83.5836 33.24C81.9436 33.24 80.4836 32.89 79.2036 32.19C77.9236 31.49 76.9236 30.49 76.2036 29.19C75.4836 27.89 75.1236 26.37 75.1236 24.63C75.1236 22.89 75.4736 21.37 76.1736 20.07C76.8936 18.77 77.8936 17.77 79.1736 17.07C80.4536 16.37 81.9236 16.02 83.5836 16.02C85.2036 16.02 86.6436 16.36 87.9036 17.04C89.1636 17.72 90.1436 18.69 90.8436 19.95C91.5636 21.21 91.9236 22.68 91.9236 24.36ZM86.6736 23.01C86.6736 22.13 86.3736 21.43 85.7736 20.91C85.1736 20.39 84.4236 20.13 83.5236 20.13C82.6636 20.13 81.9336 20.38 81.3336 20.88C80.7536 21.38 80.3936 22.09 80.2536 23.01H86.6736ZM92.4099 24.6C92.4099 22.88 92.7299 21.37 93.3699 20.07C94.0299 18.77 94.9199 17.77 96.0399 17.07C97.1599 16.37 98.4099 16.02 99.7899 16.02C100.97 16.02 102 16.26 102.88 16.74C103.78 17.22 104.47 17.85 104.95 18.63V16.26H110.08V33H104.95V30.63C104.45 31.41 103.75 32.04 102.85 32.52C101.97 33 100.94 33.24 99.7599 33.24C98.3999 33.24 97.1599 32.89 96.0399 32.19C94.9199 31.47 94.0299 30.46 93.3699 29.16C92.7299 27.84 92.4099 26.32 92.4099 24.6ZM104.95 24.63C104.95 23.35 104.59 22.34 103.87 21.6C103.17 20.86 102.31 20.49 101.29 20.49C100.27 20.49 99.3999 20.86 98.6799 21.6C97.9799 22.32 97.6299 23.32 97.6299 24.6C97.6299 25.88 97.9799 26.9 98.6799 27.66C99.3999 28.4 100.27 28.77 101.29 28.77C102.31 28.77 103.17 28.4 103.87 27.66C104.59 26.92 104.95 25.91 104.95 24.63ZM121.921 28.65V33H119.311C117.451 33 116.001 32.55 114.961 31.65C113.921 30.73 113.401 29.24 113.401 27.18V20.52H111.361V16.26H113.401V12.18H118.531V16.26H121.891V20.52H118.531V27.24C118.531 27.74 118.651 28.1 118.891 28.32C119.131 28.54 119.531 28.65 120.091 28.65H121.921ZM139.359 24.36C139.359 24.84 139.329 25.34 139.269 25.86H127.659C127.739 26.9 128.069 27.7 128.649 28.26C129.249 28.8 129.979 29.07 130.839 29.07C132.119 29.07 133.009 28.53 133.509 27.45H138.969C138.689 28.55 138.179 29.54 137.439 30.42C136.719 31.3 135.809 31.99 134.709 32.49C133.609 32.99 132.379 33.24 131.019 33.24C129.379 33.24 127.919 32.89 126.639 32.19C125.359 31.49 124.359 30.49 123.639 29.19C122.919 27.89 122.559 26.37 122.559 24.63C122.559 22.89 122.909 21.37 123.609 20.07C124.329 18.77 125.329 17.77 126.609 17.07C127.889 16.37 129.359 16.02 131.019 16.02C132.639 16.02 134.079 16.36 135.339 17.04C136.599 17.72 137.579 18.69 138.279 19.95C138.999 21.21 139.359 22.68 139.359 24.36ZM134.109 23.01C134.109 22.13 133.809 21.43 133.209 20.91C132.609 20.39 131.859 20.13 130.959 20.13C130.099 20.13 129.369 20.38 128.769 20.88C128.189 21.38 127.829 22.09 127.689 23.01H134.109ZM139.845 24.6C139.845 22.88 140.165 21.37 140.805 20.07C141.465 18.77 142.355 17.77 143.475 17.07C144.595 16.37 145.845 16.02 147.225 16.02C148.325 16.02 149.325 16.25 150.225 16.71C151.145 17.17 151.865 17.79 152.385 18.57V10.8H157.515V33H152.385V30.6C151.905 31.4 151.215 32.04 150.315 32.52C149.435 33 148.405 33.24 147.225 33.24C145.845 33.24 144.595 32.89 143.475 32.19C142.355 31.47 141.465 30.46 140.805 29.16C140.165 27.84 139.845 26.32 139.845 24.6ZM152.385 24.63C152.385 23.35 152.025 22.34 151.305 21.6C150.605 20.86 149.745 20.49 148.725 20.49C147.705 20.49 146.835 20.86 146.115 21.6C145.415 22.32 145.065 23.32 145.065 24.6C145.065 25.88 145.415 26.9 146.115 27.66C146.835 28.4 147.705 28.77 148.725 28.77C149.745 28.77 150.605 28.4 151.305 27.66C152.025 26.92 152.385 25.91 152.385 24.63ZM189.214 16.26L184.684 33H179.014L176.374 22.14L173.644 33H168.004L163.444 16.26H168.574L170.944 28.23L173.764 16.26H179.194L182.044 28.17L184.384 16.26H189.214ZM192.55 14.52C191.65 14.52 190.91 14.26 190.33 13.74C189.77 13.2 189.49 12.54 189.49 11.76C189.49 10.96 189.77 10.3 190.33 9.78C190.91 9.24 191.65 8.97 192.55 8.97C193.43 8.97 194.15 9.24 194.71 9.78C195.29 10.3 195.58 10.96 195.58 11.76C195.58 12.54 195.29 13.2 194.71 13.74C194.15 14.26 193.43 14.52 192.55 14.52ZM195.1 16.26V33H189.97V16.26H195.1ZM206.948 28.65V33H204.338C202.478 33 201.028 32.55 199.988 31.65C198.948 30.73 198.428 29.24 198.428 27.18V20.52H196.388V16.26H198.428V12.18H203.558V16.26H206.918V20.52H203.558V27.24C203.558 27.74 203.678 28.1 203.918 28.32C204.158 28.54 204.558 28.65 205.118 28.65H206.948ZM218.895 16.08C220.815 16.08 222.355 16.72 223.515 18C224.675 19.26 225.255 21 225.255 23.22V33H220.155V23.91C220.155 22.79 219.865 21.92 219.285 21.3C218.705 20.68 217.925 20.37 216.945 20.37C215.965 20.37 215.185 20.68 214.605 21.3C214.025 21.92 213.735 22.79 213.735 23.91V33H208.605V10.8H213.735V18.51C214.255 17.77 214.965 17.18 215.865 16.74C216.765 16.3 217.775 16.08 218.895 16.08Z" fill="#ABAAAA"/>
</svg>
