<svg width="2192" height="1628" viewBox="0 0 2192 1628" fill="none" xmlns="http://www.w3.org/2000/svg">
<g clip-path="url(#clip0)">
<path d="M2058.15 114.474H163.327V1326.55H2058.15V114.474Z" fill="#3F3D56"/>
<path d="M2004.27 333.322H1151.15V1325.43H2004.27V333.322Z" fill="#F2F2F2"/>
<path d="M86.8633 1258.73C112.793 1306.81 167.826 1327.45 167.826 1327.45C167.826 1327.45 180.819 1270.13 154.888 1222.05C128.958 1173.98 73.9252 1153.34 73.9252 1153.34C73.9252 1153.34 60.9332 1210.65 86.8633 1258.73Z" fill="#3F3D56"/>
<path d="M104.686 1242.91C151.501 1271.07 169.531 1327 169.531 1327C169.531 1327 111.659 1337.28 64.8444 1309.12C18.0299 1280.96 0 1225.03 0 1225.03C0 1225.03 57.8716 1214.75 104.686 1242.91Z" fill="#027BFF"/>
<path d="M1957.12 425.635H1439.7V446.495H1957.12V425.635Z" fill="white"/>
<path d="M1957.12 471.526H1439.7V492.385H1957.12V471.526Z" fill="white"/>
<path d="M1614.96 517.417H1439.7V538.276H1614.96V517.417Z" fill="white"/>
<path d="M894.618 1051.88H377.201V1072.74H894.618V1051.88Z" fill="white"/>
<path d="M894.618 1097.77H377.201V1118.63H894.618V1097.77Z" fill="white"/>
<path d="M552.455 1143.66H377.201V1164.52H552.455V1143.66Z" fill="white"/>
<path d="M1835.89 681.519H1318.47V702.378H1835.89V681.519Z" fill="white"/>
<path d="M1835.89 727.41H1318.47V748.269H1835.89V727.41Z" fill="white"/>
<path d="M1835.89 772.302H1318.47V793.161H1835.89V772.302Z" fill="white"/>
<path d="M1835.89 817.193H1318.47V838.053H1835.89V817.193Z" fill="white"/>
<path d="M1835.89 862.085H1318.47V882.945H1835.89V862.085Z" fill="white"/>
<path d="M1835.89 906.977H1318.47V927.836H1835.89V906.977Z" fill="white"/>
<path d="M1835.89 951.869H1318.47V972.729H1835.89V951.869Z" fill="white"/>
<path d="M1835.89 996.761H1318.47V1017.62H1835.89V996.761Z" fill="white"/>
<path d="M1835.89 1041.65H1318.47V1062.51H1835.89V1041.65Z" fill="white"/>
<path d="M1835.89 1086.54H1318.47V1107.4H1835.89V1086.54Z" fill="white"/>
<path d="M1835.89 1131.44H1318.47V1152.3H1835.89V1131.44Z" fill="white"/>
<path d="M824.448 720.2C824.479 748.303 818.209 776.056 806.099 801.417C793.989 826.778 776.347 849.103 754.47 866.75C746.38 873.321 737.751 879.2 728.675 884.325C723.197 887.435 717.562 890.26 711.792 892.787C692.667 901.225 672.26 906.392 651.423 908.073C646.304 908.499 641.133 908.708 635.909 908.701C625.574 908.712 615.257 907.864 605.062 906.164C601.47 905.603 597.923 904.908 594.421 904.1C588.299 902.738 582.252 901.06 576.303 899.072C551.846 890.916 529.326 877.821 510.142 860.599C505.2 856.219 500.515 851.558 496.11 846.638C475.582 823.946 460.888 796.599 453.297 766.959C445.706 737.319 445.446 706.276 452.54 676.513C459.634 646.75 473.869 619.161 494.014 596.129C514.159 573.097 539.61 555.314 568.168 544.317C596.725 533.32 627.531 529.439 657.925 533.009C688.319 536.58 717.386 547.494 742.617 564.809C767.847 582.125 788.482 605.321 802.739 632.394C816.997 659.467 824.448 689.604 824.448 720.2V720.2Z" fill="#027BFF"/>
<path d="M1385.35 509.921C1385.62 570.254 1349.84 591.476 1305.59 591.672C1304.56 591.677 1303.54 591.67 1302.52 591.651C1300.47 591.616 1298.44 591.532 1296.43 591.398C1256.48 588.748 1225.35 566.741 1225.1 510.632C1224.85 452.566 1298.75 378.959 1304.29 373.516L1304.3 373.511C1304.51 373.303 1304.62 373.2 1304.62 373.2C1304.62 373.2 1385.08 449.593 1385.35 509.921Z" fill="#027BFF"/>
<path d="M1302.63 582.456L1331.76 541.39L1302.58 586.951L1302.52 591.651C1300.47 591.616 1298.44 591.532 1296.43 591.398L1299.32 531.027L1299.29 530.56L1299.35 530.471L1299.62 524.766L1269.97 479.354L1299.69 520.494L1299.77 521.703L1301.95 476.09L1276.53 429.139L1302.23 468.074L1304.29 373.516L1304.3 373.201L1304.3 373.511L1304.22 448.074L1329.18 418.404L1304.14 454.496L1303.66 495.332L1326.93 456.042L1303.59 501.335L1303.32 524.042L1337.1 469.346L1303.23 531.964L1302.63 582.456Z" fill="#3F3D56"/>
<path d="M2057.02 645.321C1973.66 645.321 1893.72 678.428 1834.78 737.36C1775.83 796.292 1742.72 876.221 1742.72 959.563V959.564C1742.72 983.971 1733.02 1007.38 1715.76 1024.64C1698.5 1041.9 1675.08 1051.59 1650.67 1051.59H1498.01C1462.04 1051.59 1426.42 1058.68 1393.19 1072.44C1359.96 1086.2 1329.77 1106.37 1304.33 1131.8C1278.9 1157.23 1258.72 1187.41 1244.96 1220.64C1231.2 1253.86 1224.11 1289.47 1224.11 1325.43V1325.43H2057.02V645.321H2057.02Z" fill="#3F3D56"/>
<path d="M1129.82 114.474H1089.41V1326.55H1129.82V114.474Z" fill="#2F2E41"/>
<path d="M717.854 96.5175V65.0932C717.843 47.8362 710.979 31.2895 698.771 19.0907C686.562 6.89183 670.008 0.0391922 652.747 0.0391922C635.487 0.0391922 618.933 6.89183 606.724 19.0907C594.516 31.2895 587.652 47.8362 587.641 65.0932V96.5175H464.164V166.1H841.331V96.5175H717.854ZM652.748 17.9567C660.296 17.9567 667.675 20.1947 673.951 24.3876C680.228 28.5804 685.119 34.5399 688.008 41.5124C690.897 48.4848 691.653 56.1572 690.18 63.5591C688.707 70.961 685.072 77.7602 679.735 83.0967C674.397 88.4332 667.597 92.0674 660.193 93.5397C652.79 95.0121 645.116 94.2564 638.142 91.3683C631.168 88.4802 625.208 83.5894 621.014 77.3143C616.82 71.0393 614.582 63.6618 614.582 56.1148C614.582 51.1038 615.569 46.1419 617.487 41.5124C619.405 36.8828 622.216 32.6763 625.76 29.133C629.304 25.5897 633.512 22.779 638.142 20.8614C642.773 18.9437 647.736 17.9567 652.748 17.9567V17.9567Z" fill="#027BFF"/>
<path d="M669.388 707.762C669.388 707.762 650.635 761.124 662.175 769.334C673.715 777.544 623.227 844.589 623.227 844.589L562.641 828.17L595.819 772.07C595.819 772.07 600.147 715.971 600.147 707.762C600.147 699.552 669.388 707.762 669.388 707.762Z" fill="#FFB8B8"/>
<path opacity="0.1" d="M669.388 707.762C669.388 707.762 650.635 761.124 662.175 769.334C673.715 777.544 623.227 844.589 623.227 844.589L562.641 828.17L595.819 772.07C595.819 772.07 600.147 715.971 600.147 707.762C600.147 699.552 669.388 707.762 669.388 707.762Z" fill="black"/>
<path d="M631.068 747.442C658.278 747.442 680.336 725.388 680.336 698.184C680.336 670.98 658.278 648.926 631.068 648.926C603.859 648.926 581.801 670.98 581.801 698.184C581.801 725.388 603.859 747.442 631.068 747.442Z" fill="#FFB8B8"/>
<path d="M594.421 904.1C588.299 902.738 582.252 901.06 576.304 899.072L585.733 834.428L588.651 814.496L603.603 820.107C605.624 820.848 607.914 821.723 610.541 822.688C612.549 823.474 614.696 823.839 616.851 823.762C619.006 823.685 621.122 823.166 623.068 822.239C637.526 815.618 646.125 789.85 646.125 789.85C646.125 789.85 646.708 797.078 647.472 809.31C648.841 830.791 650.817 867.737 651.423 908.073C646.304 908.499 641.133 908.709 635.91 908.701C625.575 908.712 615.257 907.864 605.063 906.165C601.471 905.603 597.923 904.908 594.421 904.1Z" fill="#D0CDE1"/>
<path d="M607.802 781.657L603.603 820.107L601.56 838.715L594.421 904.1C588.299 902.738 582.252 901.06 576.304 899.072C551.846 890.916 529.326 877.821 510.142 860.599L501.05 828.165C501.099 826.23 501.294 824.302 501.634 822.396C501.632 822.384 501.633 822.372 501.637 822.36C501.641 822.349 501.647 822.338 501.656 822.329C501.924 820.631 502.299 818.952 502.779 817.301C502.791 817.281 502.798 817.258 502.801 817.234C504.412 811.059 507.581 805.402 512.006 800.803C522.961 789.85 595.477 755.642 595.477 755.642L596.846 758.515L607.802 781.657Z" fill="#D0CDE1"/>
<path d="M630.019 628.569C640.941 628.178 652.629 627.985 661.838 633.87C666.075 636.823 669.791 640.46 672.835 644.632C681.804 655.968 689.553 670.231 686.222 684.296L682.352 682.787C682.352 686.541 683.187 690.249 684.796 693.641C684.251 692.057 682.427 694.618 682.915 696.22L687.178 710.201C685.416 709.658 683.561 709.492 681.731 709.711C679.901 709.931 678.138 710.532 676.555 711.477C674.973 712.421 673.606 713.687 672.543 715.192C671.481 716.698 670.747 718.41 670.388 720.217C669.901 703.978 668.216 685.358 655.04 675.849C648.396 671.054 639.987 669.59 631.896 668.29C624.432 667.091 616.608 665.948 609.459 668.404C602.31 670.861 596.222 678.171 597.842 685.553C596.138 685.17 594.353 685.382 592.786 686.154C591.219 686.926 589.964 688.212 589.23 689.797C587.849 693.012 587.245 696.507 587.466 700C583.953 702.482 579.954 697.552 578.522 693.496C575.16 683.973 572.173 673.837 573.983 663.903C575.794 653.969 583.891 644.475 593.991 644.442C592.765 643.095 592.111 641.325 592.167 639.505L600.491 638.802C598.378 638.503 596.435 637.479 594.994 635.904C598.336 639.581 624.614 628.762 630.019 628.569Z" fill="#2F2E41"/>
<path d="M744.659 817.234C743.38 827.492 736.061 856.469 728.675 884.325C723.197 887.435 717.562 890.26 711.792 892.787C692.667 901.226 672.26 906.393 651.423 908.073C646.304 908.499 641.133 908.709 635.909 908.701C625.575 908.712 615.257 907.864 605.062 906.165C608.879 891.44 614.02 867.176 618.825 843.406C620.284 836.223 621.721 829.063 623.068 822.239C628.344 795.349 632.429 773.442 632.429 773.442C632.429 773.442 648.818 757.371 658.539 753.645C659.856 753.057 661.302 752.818 662.738 752.949C670.752 754.273 681.708 773.442 681.708 773.442C681.708 773.442 730.875 789.827 742.369 808.435C744.119 811.019 744.927 814.125 744.659 817.234V817.234Z" fill="#D0CDE1"/>
<path d="M536.633 817.234L533.76 878.646C525.42 873.268 517.522 867.233 510.142 860.599C505.2 856.22 500.515 851.558 496.11 846.638C498.468 836.29 500.443 827.582 501.633 822.397C501.632 822.384 501.633 822.372 501.637 822.36C501.641 822.349 501.647 822.338 501.656 822.329C502.284 819.456 502.688 817.683 502.778 817.301C502.79 817.281 502.798 817.258 502.801 817.234H536.633Z" fill="#D0CDE1"/>
<path d="M754.471 866.75C746.38 873.321 737.751 879.2 728.675 884.325C723.198 887.435 717.562 890.26 711.792 892.787L706.337 861.003L711.815 800.803L742.37 808.435L744.66 809.019L754.471 866.75Z" fill="#D0CDE1"/>
<path d="M2049.85 972.318C2049.85 972.318 2028.53 1076.54 2064.07 1067.06C2099.61 1057.59 2085.39 967.581 2085.39 967.581L2049.85 972.318Z" fill="#A0616A"/>
<path d="M2149.36 541.231H2125.67C2125.67 541.231 2099.61 560.18 2101.98 581.497C2104.34 602.815 2059.33 787.567 2059.33 811.253C2059.33 834.939 2049.86 842.045 2049.86 856.256C2049.86 870.468 2054.59 879.942 2049.86 887.048C2045.12 894.154 2035.64 936.789 2038.01 953.369C2039.39 964.38 2039.39 975.519 2038.01 986.53H2097.24C2097.24 986.53 2139.88 842.045 2149.36 834.939C2158.83 827.833 2163.57 815.99 2163.57 808.884C2163.57 801.778 2158.83 801.778 2170.68 792.304C2182.52 782.829 2175.42 740.194 2175.42 740.194L2192 697.559L2149.36 541.231Z" fill="#D0CDE1"/>
<path opacity="0.1" d="M2149.36 541.231H2125.67C2125.67 541.231 2099.61 560.18 2101.98 581.497C2104.34 602.815 2059.33 787.567 2059.33 811.253C2059.33 834.939 2049.86 842.045 2049.86 856.256C2049.86 870.468 2054.59 879.942 2049.86 887.048C2045.12 894.154 2035.64 936.789 2038.01 953.369C2039.39 964.38 2039.39 975.519 2038.01 986.53H2097.24C2097.24 986.53 2139.88 842.045 2149.36 834.939C2158.83 827.833 2163.57 815.99 2163.57 808.884C2163.57 801.778 2158.83 801.778 2170.68 792.304C2182.52 782.829 2175.42 740.194 2175.42 740.194L2192 697.559L2149.36 541.231Z" fill="black"/>
<path d="M1817.68 914.287C1817.68 914.287 1796.36 1018.51 1831.9 1009.03C1867.43 999.557 1853.22 909.55 1853.22 909.55L1817.68 914.287Z" fill="#A0616A"/>
<path d="M1824.79 1399.85L1810.58 1459.07L1862.7 1492.23L1876.91 1421.17L1824.79 1399.85Z" fill="#A0616A"/>
<path d="M2071.18 1473.28L2045.12 1508.81L2075.91 1544.34H2118.56V1473.28H2071.18Z" fill="#A0616A"/>
<path d="M2125.66 1513.55H2111.45C2104.42 1512.12 2097.16 1512.12 2090.13 1513.55C2075.91 1515.91 2056.63 1493.12 2056.63 1493.12L2038.01 1508.81C2038.01 1508.81 2000.1 1518.28 2019.06 1563.29L2061.7 1589.34C2061.7 1589.34 2083.02 1634.34 2125.66 1627.24C2168.31 1620.13 2137.51 1572.76 2137.51 1572.76L2125.66 1513.55Z" fill="#2F2E41"/>
<path d="M1824.79 1430.64L1821.19 1414.87L1789.25 1423.54C1789.25 1423.54 1722.92 1380.9 1722.92 1437.75C1722.92 1494.6 1775.04 1513.55 1775.04 1513.55C1775.04 1513.55 1793.99 1511.18 1793.99 1527.76C1793.99 1544.34 1843.74 1570.39 1862.7 1560.92C1881.65 1551.44 1881.65 1527.76 1881.65 1527.76L1876.91 1461.44L1855.59 1466.17C1855.59 1466.17 1815.31 1463.81 1822.42 1454.33C1829.53 1444.86 1824.79 1430.64 1824.79 1430.64Z" fill="#2F2E41"/>
<path d="M1893.49 885.864C1893.49 885.864 1865.07 923.762 1865.07 945.079C1865.07 966.397 1855.59 1155.89 1855.59 1155.89C1855.59 1155.89 1803.47 1397.48 1817.68 1411.7C1831.9 1425.91 1874.54 1447.22 1881.65 1440.12C1888.76 1433.01 1938.51 1174.83 1938.51 1174.83L1997.73 1016.14L2052.22 1243.52C2052.22 1243.52 2049.85 1440.12 2059.33 1442.49C2068.81 1444.86 2073.55 1447.22 2068.81 1456.7C2064.07 1466.17 2056.96 1485.12 2056.96 1485.12C2056.96 1485.12 2116.19 1499.33 2128.03 1489.86C2139.88 1480.39 2142.25 1250.63 2128.03 1170.1C2113.82 1089.56 2130.4 904.813 2130.4 904.813L1893.49 885.864Z" fill="#2F2E41"/>
<path d="M1979.97 427.538C2019.22 427.538 2051.04 395.724 2051.04 356.479C2051.04 317.235 2019.22 285.421 1979.97 285.421C1940.71 285.421 1908.89 317.235 1908.89 356.479C1908.89 395.724 1940.71 427.538 1979.97 427.538Z" fill="#A0616A"/>
<path d="M1958.64 401.483C1958.64 401.483 1968.12 451.224 1958.64 465.435C1949.17 479.647 2086.58 470.173 2086.58 470.173C2086.58 470.173 2020.24 394.377 2027.35 380.165C2034.46 365.954 1958.64 401.483 1958.64 401.483Z" fill="#A0616A"/>
<path d="M1898.23 483.2C1898.23 483.2 1945.62 421.616 2004.84 433.459C2020.83 436.656 2035.44 439.854 2048.25 442.818C2093.38 453.263 2130.9 485.419 2146.32 529.092C2150.32 540.417 2152.32 551.298 2150.54 560.18C2143.43 595.709 2146.99 876.389 2146.99 876.389C2146.99 876.389 2128.04 883.495 2130.4 892.97C2132.77 902.444 2149.36 914.287 2132.77 914.287C2116.19 914.287 1865.07 904.813 1869.8 897.707C1874.54 890.601 1898.23 483.2 1898.23 483.2Z" fill="#D0CDE1"/>
<path d="M1921.92 483.2H1898.23C1898.23 483.2 1872.17 502.149 1874.54 523.466C1876.91 544.784 1831.9 729.536 1831.9 753.222C1831.9 776.908 1822.42 784.014 1822.42 798.225C1822.42 812.437 1827.16 821.911 1822.42 829.017C1817.68 836.123 1808.21 878.758 1810.58 895.338C1811.95 906.349 1811.95 917.488 1810.58 928.499H1869.8C1869.8 928.499 1912.45 784.014 1921.92 776.908C1931.4 769.802 1936.14 757.959 1936.14 750.853C1936.14 743.747 1931.4 743.747 1943.25 734.273C1955.09 724.798 1947.98 682.163 1947.98 682.163L1964.57 639.528L1921.92 483.2Z" fill="#D0CDE1"/>
<path opacity="0.1" d="M1887.38 894.582L1958.64 737.825L1923.02 904.537L1887.38 894.582Z" fill="black"/>
<path d="M1955.17 249.022L1955.21 243.158C1960.11 242.536 1965.07 242.71 1969.91 243.674C1969.97 240.134 1969.23 236.627 1967.76 233.406C1972.64 234.048 1977.39 235.46 1981.82 237.59L1983.45 226.699L2025.89 241.567C2041.12 246.904 2057.22 252.846 2067.1 265.602C2078.12 279.823 2078.92 299.722 2074.69 317.208C2070.46 334.694 2061.86 350.759 2055.43 367.565C2053.09 374.74 2050.07 381.677 2046.42 388.281C2033.59 408.951 2004.64 416.327 1981.95 407.546C1973.58 404.305 1965.67 398.901 1961.43 390.99C1959.26 386.082 1957.41 381.038 1955.9 375.889C1951.95 365.445 1946.2 343.598 1936.62 337.85C1932.41 335.321 1925.99 346.18 1922.35 342.877C1913.01 334.39 1912.95 319.558 1916.65 307.488C1920.14 295.393 1924.49 283.566 1929.69 272.099C1931.92 267.472 1955.18 248.319 1955.17 249.022Z" fill="#2F2E41"/>
</g>
<defs>
<clipPath id="clip0">
<rect width="2192" height="1628" fill="white"/>
</clipPath>
</defs>
</svg>
