<svg width="386" height="79" viewBox="0 0 386 79" fill="none" xmlns="http://www.w3.org/2000/svg">
<path d="M30.2222 52.4445H3.77778C1.69137 52.4445 0 54.1358 0 56.2222C0 58.3086 1.69137 60 3.77778 60H30.2222C32.3086 60 34 58.3086 34 56.2222C34 54.1358 32.3086 52.4445 30.2222 52.4445Z" fill="white"/>
<path d="M56.168 60.336C53.704 60.336 51.496 59.936 49.544 59.136C47.592 58.336 46.024 57.152 44.84 55.584C43.688 54.016 43.08 52.128 43.016 49.92H51.752C51.88 51.168 52.312 52.128 53.048 52.8C53.784 53.44 54.744 53.76 55.928 53.76C57.144 53.76 58.104 53.488 58.808 52.944C59.512 52.368 59.864 51.584 59.864 50.592C59.864 49.76 59.576 49.072 59 48.528C58.456 47.984 57.768 47.536 56.936 47.184C56.136 46.832 54.984 46.432 53.48 45.984C51.304 45.312 49.528 44.64 48.152 43.968C46.776 43.296 45.592 42.304 44.6 40.992C43.608 39.68 43.112 37.968 43.112 35.856C43.112 32.72 44.248 30.272 46.52 28.512C48.792 26.72 51.752 25.824 55.4 25.824C59.112 25.824 62.104 26.72 64.376 28.512C66.648 30.272 67.864 32.736 68.024 35.904H59.144C59.08 34.816 58.68 33.968 57.944 33.36C57.208 32.72 56.264 32.4 55.112 32.4C54.12 32.4 53.32 32.672 52.712 33.216C52.104 33.728 51.8 34.48 51.8 35.472C51.8 36.56 52.312 37.408 53.336 38.016C54.36 38.624 55.96 39.28 58.136 39.984C60.312 40.72 62.072 41.424 63.416 42.096C64.792 42.768 65.976 43.744 66.968 45.024C67.96 46.304 68.456 47.952 68.456 49.968C68.456 51.888 67.96 53.632 66.968 55.2C66.008 56.768 64.6 58.016 62.744 58.944C60.888 59.872 58.696 60.336 56.168 60.336ZM96.8352 46.176C96.8352 46.944 96.7873 47.744 96.6913 48.576H78.1153C78.2433 50.24 78.7713 51.52 79.6993 52.416C80.6593 53.28 81.8273 53.712 83.2033 53.712C85.2513 53.712 86.6753 52.848 87.4753 51.12H96.2113C95.7633 52.88 94.9473 54.464 93.7633 55.872C92.6113 57.28 91.1553 58.384 89.3953 59.184C87.6353 59.984 85.6673 60.384 83.4913 60.384C80.8673 60.384 78.5313 59.824 76.4833 58.704C74.4353 57.584 72.8353 55.984 71.6833 53.904C70.5312 51.824 69.9552 49.392 69.9552 46.608C69.9552 43.824 70.5152 41.392 71.6352 39.312C72.7873 37.232 74.3873 35.632 76.4353 34.512C78.4833 33.392 80.8353 32.832 83.4913 32.832C86.0833 32.832 88.3873 33.376 90.4033 34.464C92.4193 35.552 93.9873 37.104 95.1073 39.12C96.2593 41.136 96.8352 43.488 96.8352 46.176ZM88.4353 44.016C88.4353 42.608 87.9553 41.488 86.9953 40.656C86.0353 39.824 84.8353 39.408 83.3953 39.408C82.0193 39.408 80.8513 39.808 79.8913 40.608C78.9633 41.408 78.3873 42.544 78.1633 44.016H88.4353ZM124.493 46.176C124.493 46.944 124.445 47.744 124.349 48.576H105.773C105.901 50.24 106.429 51.52 107.357 52.416C108.317 53.28 109.485 53.712 110.861 53.712C112.909 53.712 114.333 52.848 115.133 51.12H123.869C123.421 52.88 122.605 54.464 121.421 55.872C120.269 57.28 118.813 58.384 117.053 59.184C115.293 59.984 113.325 60.384 111.149 60.384C108.525 60.384 106.189 59.824 104.141 58.704C102.093 57.584 100.493 55.984 99.3414 53.904C98.1894 51.824 97.6134 49.392 97.6134 46.608C97.6134 43.824 98.1734 41.392 99.2934 39.312C100.445 37.232 102.045 35.632 104.093 34.512C106.141 33.392 108.493 32.832 111.149 32.832C113.741 32.832 116.045 33.376 118.061 34.464C120.077 35.552 121.645 37.104 122.765 39.12C123.917 41.136 124.493 43.488 124.493 46.176ZM116.093 44.016C116.093 42.608 115.613 41.488 114.653 40.656C113.693 39.824 112.493 39.408 111.053 39.408C109.677 39.408 108.509 39.808 107.549 40.608C106.621 41.408 106.045 42.544 105.821 44.016H116.093ZM165.064 26.304V60H156.856V39.792L149.319 60H142.695L135.111 39.744V60H126.903V26.304H136.599L146.055 49.632L155.415 26.304H165.064ZM196.406 33.216L179.606 72.72H170.774L176.918 59.088L166.022 33.216H175.19L181.382 49.968L187.526 33.216H196.406ZM214.638 60L207.63 47.28H205.662V60H197.454V26.304H211.23C213.886 26.304 216.142 26.768 217.998 27.696C219.886 28.624 221.294 29.904 222.222 31.536C223.15 33.136 223.614 34.928 223.614 36.912C223.614 39.152 222.974 41.152 221.694 42.912C220.446 44.672 218.59 45.92 216.126 46.656L223.902 60H214.638ZM205.662 41.472H210.75C212.254 41.472 213.374 41.104 214.11 40.368C214.878 39.632 215.262 38.592 215.262 37.248C215.262 35.968 214.878 34.96 214.11 34.224C213.374 33.488 212.254 33.12 210.75 33.12H205.662V41.472ZM252.095 46.176C252.095 46.944 252.047 47.744 251.951 48.576H233.375C233.503 50.24 234.031 51.52 234.959 52.416C235.919 53.28 237.087 53.712 238.463 53.712C240.511 53.712 241.935 52.848 242.735 51.12H251.471C251.023 52.88 250.207 54.464 249.023 55.872C247.871 57.28 246.415 58.384 244.655 59.184C242.895 59.984 240.927 60.384 238.751 60.384C236.127 60.384 233.791 59.824 231.743 58.704C229.695 57.584 228.095 55.984 226.943 53.904C225.791 51.824 225.215 49.392 225.215 46.608C225.215 43.824 225.775 41.392 226.895 39.312C228.047 37.232 229.647 35.632 231.695 34.512C233.743 33.392 236.095 32.832 238.751 32.832C241.343 32.832 243.647 33.376 245.663 34.464C247.679 35.552 249.247 37.104 250.367 39.12C251.519 41.136 252.095 43.488 252.095 46.176ZM243.695 44.016C243.695 42.608 243.215 41.488 242.255 40.656C241.295 39.824 240.095 39.408 238.655 39.408C237.279 39.408 236.111 39.808 235.151 40.608C234.223 41.408 233.647 42.544 233.423 44.016H243.695ZM265.401 60.384C263.065 60.384 260.985 59.984 259.161 59.184C257.337 58.384 255.897 57.296 254.841 55.92C253.785 54.512 253.193 52.944 253.065 51.216H261.177C261.273 52.144 261.705 52.896 262.473 53.472C263.241 54.048 264.185 54.336 265.305 54.336C266.329 54.336 267.113 54.144 267.657 53.76C268.233 53.344 268.521 52.816 268.521 52.176C268.521 51.408 268.121 50.848 267.321 50.496C266.521 50.112 265.225 49.696 263.433 49.248C261.513 48.8 259.913 48.336 258.633 47.856C257.353 47.344 256.249 46.56 255.321 45.504C254.393 44.416 253.929 42.96 253.929 41.136C253.929 39.6 254.345 38.208 255.177 36.96C256.041 35.68 257.289 34.672 258.921 33.936C260.585 33.2 262.553 32.832 264.825 32.832C268.185 32.832 270.825 33.664 272.745 35.328C274.697 36.992 275.817 39.2 276.105 41.952H268.521C268.393 41.024 267.977 40.288 267.273 39.744C266.601 39.2 265.705 38.928 264.585 38.928C263.625 38.928 262.889 39.12 262.377 39.504C261.865 39.856 261.609 40.352 261.609 40.992C261.609 41.76 262.009 42.336 262.809 42.72C263.641 43.104 264.921 43.488 266.649 43.872C268.633 44.384 270.249 44.896 271.497 45.408C272.745 45.888 273.833 46.688 274.761 47.808C275.721 48.896 276.217 50.368 276.249 52.224C276.249 53.792 275.801 55.2 274.905 56.448C274.041 57.664 272.777 58.624 271.113 59.328C269.481 60.032 267.577 60.384 265.401 60.384ZM305.798 33.216V60H297.59V56.352C296.758 57.536 295.622 58.496 294.182 59.232C292.774 59.936 291.206 60.288 289.478 60.288C287.43 60.288 285.622 59.84 284.054 58.944C282.486 58.016 281.27 56.688 280.406 54.96C279.542 53.232 279.11 51.2 279.11 48.864V33.216H287.27V47.76C287.27 49.552 287.734 50.944 288.662 51.936C289.59 52.928 290.838 53.424 292.406 53.424C294.006 53.424 295.27 52.928 296.198 51.936C297.126 50.944 297.59 49.552 297.59 47.76V33.216H305.798ZM343.95 32.928C347.278 32.928 349.918 33.936 351.87 35.952C353.854 37.968 354.846 40.768 354.846 44.352V60H346.686V45.456C346.686 43.728 346.222 42.4 345.294 41.472C344.398 40.512 343.15 40.032 341.55 40.032C339.95 40.032 338.686 40.512 337.758 41.472C336.862 42.4 336.414 43.728 336.414 45.456V60H328.254V45.456C328.254 43.728 327.79 42.4 326.862 41.472C325.966 40.512 324.718 40.032 323.118 40.032C321.518 40.032 320.254 40.512 319.326 41.472C318.43 42.4 317.982 43.728 317.982 45.456V60H309.774V33.216H317.982V36.576C318.814 35.456 319.902 34.576 321.246 33.936C322.59 33.264 324.11 32.928 325.806 32.928C327.822 32.928 329.614 33.36 331.182 34.224C332.782 35.088 334.03 36.32 334.926 37.92C335.854 36.448 337.118 35.248 338.718 34.32C340.318 33.392 342.062 32.928 343.95 32.928ZM383.915 46.176C383.915 46.944 383.867 47.744 383.771 48.576H365.195C365.323 50.24 365.851 51.52 366.779 52.416C367.739 53.28 368.907 53.712 370.283 53.712C372.331 53.712 373.755 52.848 374.555 51.12H383.291C382.843 52.88 382.027 54.464 380.843 55.872C379.691 57.28 378.235 58.384 376.475 59.184C374.715 59.984 372.747 60.384 370.571 60.384C367.947 60.384 365.611 59.824 363.563 58.704C361.515 57.584 359.915 55.984 358.763 53.904C357.611 51.824 357.035 49.392 357.035 46.608C357.035 43.824 357.595 41.392 358.715 39.312C359.867 37.232 361.467 35.632 363.515 34.512C365.563 33.392 367.915 32.832 370.571 32.832C373.163 32.832 375.467 33.376 377.483 34.464C379.499 35.552 381.067 37.104 382.187 39.12C383.339 41.136 383.915 43.488 383.915 46.176ZM375.515 44.016C375.515 42.608 375.035 41.488 374.075 40.656C373.115 39.824 371.915 39.408 370.475 39.408C369.099 39.408 367.931 39.808 366.971 40.608C366.043 41.408 365.467 42.544 365.243 44.016H375.515Z" fill="white"/>
<path d="M30.2222 39.2222H12.7252C10.6388 39.2222 8.94739 40.9136 8.94739 43C8.94739 45.0864 10.6388 46.7778 12.7252 46.7778H30.2222C32.3086 46.7778 34 45.0864 34 43C34 40.9136 32.3086 39.2222 30.2222 39.2222Z" fill="white"/>
<path d="M30.2222 26H25.2514C23.165 26 21.4736 27.6914 21.4736 29.7778C21.4736 31.8642 23.165 33.5556 25.2514 33.5556H30.2222C32.3086 33.5556 33.9999 31.8642 33.9999 29.7778C33.9999 27.6914 32.3086 26 30.2222 26Z" fill="white"/>
<path d="M336.592 14.504C336.976 13.88 337.528 13.376 338.248 12.992C338.968 12.608 339.792 12.416 340.72 12.416C341.824 12.416 342.824 12.696 343.72 13.256C344.616 13.816 345.32 14.616 345.832 15.656C346.36 16.696 346.624 17.904 346.624 19.28C346.624 20.656 346.36 21.872 345.832 22.928C345.32 23.968 344.616 24.776 343.72 25.352C342.824 25.912 341.824 26.192 340.72 26.192C339.776 26.192 338.952 26.008 338.248 25.64C337.544 25.256 336.992 24.752 336.592 24.128V26H332.488V8.24H336.592V14.504ZM342.448 19.28C342.448 18.256 342.16 17.456 341.584 16.88C341.024 16.288 340.328 15.992 339.496 15.992C338.68 15.992 337.984 16.288 337.408 16.88C336.848 17.472 336.568 18.28 336.568 19.304C336.568 20.328 336.848 21.136 337.408 21.728C337.984 22.32 338.68 22.616 339.496 22.616C340.312 22.616 341.008 22.32 341.584 21.728C342.16 21.12 342.448 20.304 342.448 19.28ZM360.441 19.088C360.441 19.472 360.417 19.872 360.369 20.288H351.081C351.145 21.12 351.409 21.76 351.873 22.208C352.353 22.64 352.937 22.856 353.625 22.856C354.649 22.856 355.361 22.424 355.761 21.56H360.129C359.905 22.44 359.497 23.232 358.905 23.936C358.329 24.64 357.601 25.192 356.721 25.592C355.841 25.992 354.857 26.192 353.769 26.192C352.457 26.192 351.289 25.912 350.265 25.352C349.241 24.792 348.441 23.992 347.865 22.952C347.289 21.912 347.001 20.696 347.001 19.304C347.001 17.912 347.281 16.696 347.841 15.656C348.417 14.616 349.217 13.816 350.241 13.256C351.265 12.696 352.441 12.416 353.769 12.416C355.065 12.416 356.217 12.688 357.225 13.232C358.233 13.776 359.017 14.552 359.577 15.56C360.153 16.568 360.441 17.744 360.441 19.088ZM356.241 18.008C356.241 17.304 356.001 16.744 355.521 16.328C355.041 15.912 354.441 15.704 353.721 15.704C353.033 15.704 352.449 15.904 351.969 16.304C351.505 16.704 351.217 17.272 351.105 18.008H356.241ZM369.11 22.52V26H367.022C365.534 26 364.374 25.64 363.542 24.92C362.71 24.184 362.294 22.992 362.294 21.344V16.016H360.662V12.608H362.294V9.344H366.398V12.608H369.086V16.016H366.398V21.392C366.398 21.792 366.494 22.08 366.686 22.256C366.878 22.432 367.198 22.52 367.646 22.52H369.11ZM369.62 19.28C369.62 17.904 369.876 16.696 370.388 15.656C370.916 14.616 371.628 13.816 372.524 13.256C373.42 12.696 374.42 12.416 375.524 12.416C376.468 12.416 377.292 12.608 377.996 12.992C378.716 13.376 379.268 13.88 379.652 14.504V12.608H383.756V26H379.652V24.104C379.252 24.728 378.692 25.232 377.972 25.616C377.268 26 376.444 26.192 375.5 26.192C374.412 26.192 373.42 25.912 372.524 25.352C371.628 24.776 370.916 23.968 370.388 22.928C369.876 21.872 369.62 20.656 369.62 19.28ZM379.652 19.304C379.652 18.28 379.364 17.472 378.788 16.88C378.228 16.288 377.54 15.992 376.724 15.992C375.908 15.992 375.212 16.288 374.636 16.88C374.076 17.456 373.796 18.256 373.796 19.28C373.796 20.304 374.076 21.12 374.636 21.728C375.212 22.32 375.908 22.616 376.724 22.616C377.54 22.616 378.228 22.32 378.788 21.728C379.364 21.136 379.652 20.328 379.652 19.304Z" fill="white"/>
</svg>
