<svg width="386" height="72" viewBox="0 0 386 72" fill="none" xmlns="http://www.w3.org/2000/svg">
<path d="M56.168 53.336C53.704 53.336 51.496 52.936 49.544 52.136C47.592 51.336 46.024 50.152 44.84 48.584C43.688 47.016 43.08 45.128 43.016 42.92H51.752C51.88 44.168 52.312 45.128 53.048 45.8C53.784 46.44 54.744 46.76 55.928 46.76C57.144 46.76 58.104 46.488 58.808 45.944C59.512 45.368 59.864 44.584 59.864 43.592C59.864 42.76 59.576 42.072 59 41.528C58.456 40.984 57.768 40.536 56.936 40.184C56.136 39.832 54.984 39.432 53.48 38.984C51.304 38.312 49.528 37.64 48.152 36.968C46.776 36.296 45.592 35.304 44.6 33.992C43.608 32.68 43.112 30.968 43.112 28.856C43.112 25.72 44.248 23.272 46.52 21.512C48.792 19.72 51.752 18.824 55.4 18.824C59.112 18.824 62.104 19.72 64.376 21.512C66.648 23.272 67.864 25.736 68.024 28.904H59.144C59.08 27.816 58.68 26.968 57.944 26.36C57.208 25.72 56.264 25.4 55.112 25.4C54.12 25.4 53.32 25.672 52.712 26.216C52.104 26.728 51.8 27.48 51.8 28.472C51.8 29.56 52.312 30.408 53.336 31.016C54.36 31.624 55.96 32.28 58.136 32.984C60.312 33.72 62.072 34.424 63.416 35.096C64.792 35.768 65.976 36.744 66.968 38.024C67.96 39.304 68.456 40.952 68.456 42.968C68.456 44.888 67.96 46.632 66.968 48.2C66.008 49.768 64.6 51.016 62.744 51.944C60.888 52.872 58.696 53.336 56.168 53.336ZM96.8352 39.176C96.8352 39.944 96.7873 40.744 96.6913 41.576H78.1153C78.2433 43.24 78.7713 44.52 79.6993 45.416C80.6593 46.28 81.8273 46.712 83.2033 46.712C85.2513 46.712 86.6753 45.848 87.4753 44.12H96.2113C95.7633 45.88 94.9473 47.464 93.7633 48.872C92.6113 50.28 91.1553 51.384 89.3953 52.184C87.6353 52.984 85.6673 53.384 83.4913 53.384C80.8673 53.384 78.5313 52.824 76.4833 51.704C74.4353 50.584 72.8353 48.984 71.6833 46.904C70.5312 44.824 69.9552 42.392 69.9552 39.608C69.9552 36.824 70.5152 34.392 71.6352 32.312C72.7873 30.232 74.3873 28.632 76.4353 27.512C78.4833 26.392 80.8353 25.832 83.4913 25.832C86.0833 25.832 88.3873 26.376 90.4033 27.464C92.4193 28.552 93.9873 30.104 95.1073 32.12C96.2593 34.136 96.8352 36.488 96.8352 39.176ZM88.4353 37.016C88.4353 35.608 87.9553 34.488 86.9953 33.656C86.0353 32.824 84.8353 32.408 83.3953 32.408C82.0193 32.408 80.8513 32.808 79.8913 33.608C78.9633 34.408 78.3873 35.544 78.1633 37.016H88.4353ZM124.493 39.176C124.493 39.944 124.445 40.744 124.349 41.576H105.773C105.901 43.24 106.429 44.52 107.357 45.416C108.317 46.28 109.485 46.712 110.861 46.712C112.909 46.712 114.333 45.848 115.133 44.12H123.869C123.421 45.88 122.605 47.464 121.421 48.872C120.269 50.28 118.813 51.384 117.053 52.184C115.293 52.984 113.325 53.384 111.149 53.384C108.525 53.384 106.189 52.824 104.141 51.704C102.093 50.584 100.493 48.984 99.3414 46.904C98.1894 44.824 97.6134 42.392 97.6134 39.608C97.6134 36.824 98.1734 34.392 99.2934 32.312C100.445 30.232 102.045 28.632 104.093 27.512C106.141 26.392 108.493 25.832 111.149 25.832C113.741 25.832 116.045 26.376 118.061 27.464C120.077 28.552 121.645 30.104 122.765 32.12C123.917 34.136 124.493 36.488 124.493 39.176ZM116.093 37.016C116.093 35.608 115.613 34.488 114.653 33.656C113.693 32.824 112.493 32.408 111.053 32.408C109.677 32.408 108.509 32.808 107.549 33.608C106.621 34.408 106.045 35.544 105.821 37.016H116.093ZM165.064 19.304V53H156.856V32.792L149.319 53H142.695L135.111 32.744V53H126.903V19.304H136.599L146.055 42.632L155.415 19.304H165.064ZM196.406 26.216L179.606 65.72H170.774L176.918 52.088L166.022 26.216H175.19L181.382 42.968L187.526 26.216H196.406ZM214.638 53L207.63 40.28H205.662V53H197.454V19.304H211.23C213.886 19.304 216.142 19.768 217.998 20.696C219.886 21.624 221.294 22.904 222.222 24.536C223.15 26.136 223.614 27.928 223.614 29.912C223.614 32.152 222.974 34.152 221.694 35.912C220.446 37.672 218.59 38.92 216.126 39.656L223.902 53H214.638ZM205.662 34.472H210.75C212.254 34.472 213.374 34.104 214.11 33.368C214.878 32.632 215.262 31.592 215.262 30.248C215.262 28.968 214.878 27.96 214.11 27.224C213.374 26.488 212.254 26.12 210.75 26.12H205.662V34.472ZM252.095 39.176C252.095 39.944 252.047 40.744 251.951 41.576H233.375C233.503 43.24 234.031 44.52 234.959 45.416C235.919 46.28 237.087 46.712 238.463 46.712C240.511 46.712 241.935 45.848 242.735 44.12H251.471C251.023 45.88 250.207 47.464 249.023 48.872C247.871 50.28 246.415 51.384 244.655 52.184C242.895 52.984 240.927 53.384 238.751 53.384C236.127 53.384 233.791 52.824 231.743 51.704C229.695 50.584 228.095 48.984 226.943 46.904C225.791 44.824 225.215 42.392 225.215 39.608C225.215 36.824 225.775 34.392 226.895 32.312C228.047 30.232 229.647 28.632 231.695 27.512C233.743 26.392 236.095 25.832 238.751 25.832C241.343 25.832 243.647 26.376 245.663 27.464C247.679 28.552 249.247 30.104 250.367 32.12C251.519 34.136 252.095 36.488 252.095 39.176ZM243.695 37.016C243.695 35.608 243.215 34.488 242.255 33.656C241.295 32.824 240.095 32.408 238.655 32.408C237.279 32.408 236.111 32.808 235.151 33.608C234.223 34.408 233.647 35.544 233.423 37.016H243.695ZM265.401 53.384C263.065 53.384 260.985 52.984 259.161 52.184C257.337 51.384 255.897 50.296 254.841 48.92C253.785 47.512 253.193 45.944 253.065 44.216H261.177C261.273 45.144 261.705 45.896 262.473 46.472C263.241 47.048 264.185 47.336 265.305 47.336C266.329 47.336 267.113 47.144 267.657 46.76C268.233 46.344 268.521 45.816 268.521 45.176C268.521 44.408 268.121 43.848 267.321 43.496C266.521 43.112 265.225 42.696 263.433 42.248C261.513 41.8 259.913 41.336 258.633 40.856C257.353 40.344 256.249 39.56 255.321 38.504C254.393 37.416 253.929 35.96 253.929 34.136C253.929 32.6 254.345 31.208 255.177 29.96C256.041 28.68 257.289 27.672 258.921 26.936C260.585 26.2 262.553 25.832 264.825 25.832C268.185 25.832 270.825 26.664 272.745 28.328C274.697 29.992 275.817 32.2 276.105 34.952H268.521C268.393 34.024 267.977 33.288 267.273 32.744C266.601 32.2 265.705 31.928 264.585 31.928C263.625 31.928 262.889 32.12 262.377 32.504C261.865 32.856 261.609 33.352 261.609 33.992C261.609 34.76 262.009 35.336 262.809 35.72C263.641 36.104 264.921 36.488 266.649 36.872C268.633 37.384 270.249 37.896 271.497 38.408C272.745 38.888 273.833 39.688 274.761 40.808C275.721 41.896 276.217 43.368 276.249 45.224C276.249 46.792 275.801 48.2 274.905 49.448C274.041 50.664 272.777 51.624 271.113 52.328C269.481 53.032 267.577 53.384 265.401 53.384ZM305.798 26.216V53H297.59V49.352C296.758 50.536 295.622 51.496 294.182 52.232C292.774 52.936 291.206 53.288 289.478 53.288C287.43 53.288 285.622 52.84 284.054 51.944C282.486 51.016 281.27 49.688 280.406 47.96C279.542 46.232 279.11 44.2 279.11 41.864V26.216H287.27V40.76C287.27 42.552 287.734 43.944 288.662 44.936C289.59 45.928 290.838 46.424 292.406 46.424C294.006 46.424 295.27 45.928 296.198 44.936C297.126 43.944 297.59 42.552 297.59 40.76V26.216H305.798ZM343.95 25.928C347.278 25.928 349.918 26.936 351.87 28.952C353.854 30.968 354.846 33.768 354.846 37.352V53H346.686V38.456C346.686 36.728 346.222 35.4 345.294 34.472C344.398 33.512 343.15 33.032 341.55 33.032C339.95 33.032 338.686 33.512 337.758 34.472C336.862 35.4 336.414 36.728 336.414 38.456V53H328.254V38.456C328.254 36.728 327.79 35.4 326.862 34.472C325.966 33.512 324.718 33.032 323.118 33.032C321.518 33.032 320.254 33.512 319.326 34.472C318.43 35.4 317.982 36.728 317.982 38.456V53H309.774V26.216H317.982V29.576C318.814 28.456 319.902 27.576 321.246 26.936C322.59 26.264 324.11 25.928 325.806 25.928C327.822 25.928 329.614 26.36 331.182 27.224C332.782 28.088 334.03 29.32 334.926 30.92C335.854 29.448 337.118 28.248 338.718 27.32C340.318 26.392 342.062 25.928 343.95 25.928ZM383.915 39.176C383.915 39.944 383.867 40.744 383.771 41.576H365.195C365.323 43.24 365.851 44.52 366.779 45.416C367.739 46.28 368.907 46.712 370.283 46.712C372.331 46.712 373.755 45.848 374.555 44.12H383.291C382.843 45.88 382.027 47.464 380.843 48.872C379.691 50.28 378.235 51.384 376.475 52.184C374.715 52.984 372.747 53.384 370.571 53.384C367.947 53.384 365.611 52.824 363.563 51.704C361.515 50.584 359.915 48.984 358.763 46.904C357.611 44.824 357.035 42.392 357.035 39.608C357.035 36.824 357.595 34.392 358.715 32.312C359.867 30.232 361.467 28.632 363.515 27.512C365.563 26.392 367.915 25.832 370.571 25.832C373.163 25.832 375.467 26.376 377.483 27.464C379.499 28.552 381.067 30.104 382.187 32.12C383.339 34.136 383.915 36.488 383.915 39.176ZM375.515 37.016C375.515 35.608 375.035 34.488 374.075 33.656C373.115 32.824 371.915 32.408 370.475 32.408C369.099 32.408 367.931 32.808 366.971 33.608C366.043 34.408 365.467 35.544 365.243 37.016H375.515Z" fill="white"/>
<path d="M29.517 44.7168H3.68963C1.6519 44.7168 0 46.3616 0 48.3906C0 50.4196 1.6519 52.0644 3.68963 52.0644H29.517C31.5548 52.0644 33.2067 50.4196 33.2067 48.3906C33.2067 46.3616 31.5548 44.7168 29.517 44.7168Z" fill="white"/>
<path d="M29.5171 31.8584H12.4283C10.3906 31.8584 8.73865 33.5032 8.73865 35.5322C8.73865 37.5612 10.3906 39.206 12.4283 39.206H29.5171C31.5548 39.206 33.2067 37.5612 33.2067 35.5322C33.2067 33.5032 31.5548 31.8584 29.5171 31.8584Z" fill="white"/>
<path d="M29.517 19H24.6622C22.6245 19 20.9726 20.6448 20.9726 22.6738C20.9726 24.7028 22.6245 26.3476 24.6622 26.3476H29.517C31.5547 26.3476 33.2066 24.7028 33.2066 22.6738C33.2066 20.6448 31.5547 19 29.517 19Z" fill="white"/>
</svg>
