<svg width="104" height="104" viewBox="0 0 104 104" fill="none" xmlns="http://www.w3.org/2000/svg">
<path d="M91.9183 80.6133H11.9448C5.63507 80.6133 0.52002 85.7322 0.52002 92.0467C0.52002 98.3612 5.63507 103.48 11.9448 103.48H91.9183C98.228 103.48 103.343 98.3612 103.343 92.0467C103.343 85.7322 98.228 80.6133 91.9183 80.6133Z" fill="white"/>
<path d="M91.9187 40.5966H39.0039C32.6942 40.5966 27.5792 45.7155 27.5792 52.0299C27.5792 58.3444 32.6942 63.4633 39.0039 63.4633H91.9187C98.2285 63.4633 103.344 58.3444 103.344 52.0299C103.344 45.7155 98.2285 40.5966 91.9187 40.5966Z" fill="white"/>
<path d="M91.9178 0.580017H76.8852C70.5755 0.580017 65.4604 5.69889 65.4604 12.0133C65.4604 18.3278 70.5755 23.4466 76.8852 23.4466H91.9178C98.2276 23.4466 103.343 18.3278 103.343 12.0133C103.343 5.69889 98.2276 0.580017 91.9178 0.580017Z" fill="white"/>
</svg>
